<svg width="33" height="32" viewBox="0 0 33 32" fill="none" xmlns="http://www.w3.org/2000/svg">
<path d="M4.68215 3.58085L17.054 15.9527L4.77018 28.5982C4.75804 28.5774 4.7464 28.5562 4.73527 28.5349C4.70998 28.4869 4.6862 28.4378 4.66444 28.3877C4.53898 28.0973 4.48283 27.7786 4.50458 27.4574V4.53953C4.48637 4.20766 4.54859 3.87933 4.68215 3.58085Z" fill="#060F6E"/>
<path d="M5.39092 2.82453C5.4324 2.8048 5.4749 2.7876 5.5179 2.77141C5.68738 2.70767 5.86798 2.67225 6.05213 2.66669C6.44471 2.65556 6.82818 2.78304 7.13577 3.02638L21.6137 11.2594L17.7759 15.2095L5.39092 2.82453Z" fill="#060F6E"/>
<path d="M22.539 11.7942L18.5089 15.9426L22.6968 20.1304L27.3293 17.5007C28.7798 16.6721 28.7798 15.3248 27.3293 14.5063L22.539 11.7942Z" fill="#060F6E"/>
<path d="M21.7573 20.656L17.787 16.6857L5.58316 29.2488C5.73291 29.2978 5.89024 29.3262 6.05061 29.3317C6.44218 29.3449 6.82616 29.2204 7.13577 28.9801L21.7573 20.656Z" fill="#060F6E"/>
</svg>
